<svg xmlns="http://www.w3.org/2000/svg" width="334" height="334" fill="none" viewBox="0 0 334 334"><g clip-path="url(#clip0_3_2)"><path fill="#fff" fill-rule="evenodd" d="M53 114.104V233.838L80.9258 206.414L108.852 178.99L136.777 206.414L164.703 233.838V212.21C164.703 212.21 161.08 206.141 136.795 182.293L108.89 154.89L89.6701 173.638L70.4536 192.386V99.1008H53L53 114.104ZM147.365 100.124C147.365 100.124 147.263 106.252 147.365 135.114C147.462 162.59 147.365 170.332 147.365 170.332L164.703 184.862C164.703 184.862 164.703 168.483 164.703 149.518V115.035L196.992 115.111C235.432 115.201 254.977 122.218 265.85 139.835C275.108 154.838 275.108 178.68 265.85 193.683C257.885 206.586 235.198 218.293 217.937 218.407L206.592 218.482V177.104V135.725H197.771H188.946L189.917 184.862L190.884 234L215.472 233.569C242.986 233.089 263.836 224.865 275.879 209.741C301.571 177.476 290.872 126.139 254.586 107.587C242.26 101.287 232.975 99.8525 199.61 99.1008C177.531 98.6008 147.365 100.124 147.365 100.124Z" clip-rule="evenodd"/></g><defs><clipPath id="clip0_3_2"><rect width="334" height="334" fill="#fff"/></clipPath></defs></svg>