<svg xmlns="http://www.w3.org/2000/svg" width="1024" height="1024" preserveAspectRatio="xMidYMid meet" version="1.0" viewBox="0 0 768 768"><metadata>Created by potrace 1.14, written by Peter Selinger 2001-2017</metadata><g fill="#000" stroke="none"><path d="M800 3842 c0 -966 2 -1753 4 -1751 3 2 325 323 716 713 l712 709 104 -104 c58 -57 379 -377 714 -711 335 -335 611 -608 612 -608 2 0 3 125 3 278 0 239 -2 281 -16 302 -49 74 -235 283 -454 508 -282 291 -957 957 -966 954 -5 -1 -227 -218 -492 -481 -265 -264 -484 -478 -486 -476 -2 3 -4 548 -4 1213 l1 1209 -224 0 -224 0 0 -1755z" transform="translate(0.000000,768.000000) scale(0.100000,-0.100000)"/><path d="M3808 5595 c-2 -2 -104 -6 -228 -10 -124 -4 -236 -9 -250 -10 -14 -1 -44 -3 -68 -3 l-42 -2 0 -914 1 -915 52 -45 c60 -53 86 -74 146 -124 24 -21 53 -45 65 -55 11 -10 41 -36 66 -57 25 -21 59 -50 75 -64 17 -14 32 -26 35 -26 3 0 5 408 5 906 l0 906 605 -5 c333 -3 625 -7 650 -10 25 -3 79 -8 120 -12 41 -3 82 -8 90 -10 8 -2 40 -7 70 -10 131 -16 318 -62 455 -112 341 -126 594 -378 704 -702 57 -167 76 -292 75 -496 0 -164 -9 -238 -44 -377 -73 -287 -219 -484 -493 -667 -157 -106 -364 -200 -540 -245 -155 -40 -216 -47 -438 -50 l-179 -2 0 1078 c0 855 -3 1078 -12 1079 -7 0 -109 1 -227 2 l-213 2 6 -345 c8 -409 15 -775 21 -1070 2 -118 7 -368 11 -555 5 -305 11 -548 13 -583 1 -19 734 -5 926 18 137 16 167 21 285 46 378 82 691 249 906 484 203 222 349 540 405 885 15 88 20 389 8 475 -5 36 -11 82 -13 102 -14 106 -62 272 -119 412 -183 451 -521 785 -962 949 -81 31 -255 73 -335 82 -30 4 -66 8 -80 10 -53 8 -129 15 -230 21 -58 3 -134 8 -170 10 -72 6 -1147 14 -1152 9z" transform="translate(0.000000,768.000000) scale(0.100000,-0.100000)"/></g></svg>